<svg width="1130" height="816" viewBox="0 0 1130 816" fill="none" xmlns="http://www.w3.org/2000/svg">
<g id="Group 1">
<g id="animate">
<path id="Vector" opacity="0.3" d="M733.28 365.08H493.28V367.75H733.28V365.08Z" fill="#FBFBFB"/>
<path id="Vector_2" d="M567.39 365.08H493.28V367.75H567.39V365.08Z" fill="#FBFBFB"/>
<path id="Vector_3" opacity="0.3" d="M733.28 453.65H493.28V456.32H733.28V453.65Z" fill="#FBFBFB"/>
<path id="Vector_4" d="M624 453.65H493.28V456.32H624V453.65Z" fill="#FBFBFB"/>
<path id="Vector_5" opacity="0.3" d="M733.28 541.6H493.28V544.27H733.28V541.6Z" fill="#FBFBFB"/>
<path id="Vector_6" d="M686 541.6H493.28V544.27H686V541.6Z" fill="#FBFBFB"/>
<path id="Vector_7" opacity="0.3" d="M733.28 626.67H493.28V629.34H733.28V626.67Z" fill="#FBFBFB"/>
<path id="Vector_8" d="M567.39 626.67H493.28V629.34H567.39V626.67Z" fill="#FBFBFB"/>
</g>
<g id="all">
<path id="Vector_9" opacity="0.1" d="M656.54 125.69C584.1 123.18 515.1 99.79 449.22 74.2C383.34 48.61 318.07 20.28 247.37 6.71001C201.89 -2.00999 149.88 -3.28999 113.24 21.14C77.97 44.6 66.58 85.14 60.46 122.69C55.85 150.97 53.14 180.69 65.76 207.2C74.53 225.57 90.1 241.02 100.87 258.62C138.32 319.88 111.87 395.41 71.25 455.21C52.25 483.27 30.12 510.03 15.43 539.9C0.740009 569.77 -6.05999 603.98 6.79001 634.44C19.54 664.64 49.9 687.28 82.8 703.28C149.61 735.68 228.34 744.96 305.11 750.21C475.05 761.83 645.9 756.8 816.29 751.76C879.35 749.89 942.68 748 1004.72 738.25C1039.16 732.84 1074.72 724.25 1099.72 703.5C1131.47 677.16 1139.34 632.56 1118.06 599.5C1082.38 544.11 983.71 530.35 958.77 470.9C945.04 438.18 959.14 401.73 979.09 371.38C1021.89 306.27 1093.63 249.16 1097.41 174.74C1100.01 123.63 1065.52 72.44 1012.2 48.26C956.3 22.91 878.8 26.1 837.56 68.06C795.12 111.28 720.5 127.91 656.54 125.69Z" fill="#FBFBFB"/>
<path id="Vector_10" d="M826.6 135.07H352.2C341.265 135.07 332.4 143.935 332.4 154.87V734.24C332.4 745.175 341.265 754.04 352.2 754.04H826.6C837.535 754.04 846.4 745.175 846.4 734.24V154.87C846.4 143.935 837.535 135.07 826.6 135.07Z" fill="#464353"/>
<path id="Vector_11" opacity="0.1" d="M802.06 193.74H376.74V687.83H802.06V193.74Z" fill="white" stroke="white" stroke-miterlimit="10"/>
<path id="Vector_12" d="M589.4 742.28C599.396 742.28 607.5 734.176 607.5 724.18C607.5 714.184 599.396 706.08 589.4 706.08C579.404 706.08 571.3 714.184 571.3 724.18C571.3 734.176 579.404 742.28 589.4 742.28Z" fill="white"/>
<path id="Vector_13" d="M589.4 179.81C587.71 179.8 586.061 179.29 584.662 178.343C583.262 177.397 582.174 176.057 581.535 174.493C580.896 172.928 580.735 171.21 581.072 169.554C581.409 167.898 582.229 166.38 583.429 165.19C584.629 164 586.154 163.192 587.813 162.868C589.471 162.545 591.188 162.72 592.747 163.372C594.306 164.023 595.637 165.122 596.572 166.53C597.507 167.937 598.004 169.59 598 171.28C597.996 172.405 597.77 173.518 597.336 174.556C596.902 175.594 596.267 176.535 595.468 177.328C594.669 178.12 593.722 178.747 592.681 179.173C591.64 179.599 590.525 179.815 589.4 179.81V179.81Z" fill="white"/>
<path id="Vector_14" d="M589.4 163.21C590.996 163.2 592.56 163.665 593.891 164.546C595.223 165.427 596.262 166.683 596.878 168.156C597.493 169.629 597.657 171.252 597.348 172.818C597.039 174.384 596.271 175.823 595.142 176.952C594.013 178.081 592.574 178.849 591.008 179.158C589.442 179.467 587.819 179.303 586.346 178.688C584.873 178.072 583.617 177.033 582.736 175.701C581.855 174.37 581.39 172.806 581.4 171.21C581.416 169.093 582.264 167.067 583.76 165.57C585.257 164.074 587.283 163.226 589.4 163.21ZM589.4 162.21C587.608 162.21 585.856 162.742 584.367 163.739C582.878 164.735 581.718 166.152 581.034 167.808C580.351 169.465 580.174 171.287 580.528 173.044C580.881 174.801 581.748 176.413 583.019 177.677C584.289 178.941 585.906 179.799 587.665 180.142C589.424 180.486 591.245 180.299 592.898 179.607C594.551 178.914 595.961 177.746 596.949 176.251C597.938 174.757 598.46 173.002 598.45 171.21C598.437 168.818 597.477 166.529 595.782 164.843C594.086 163.157 591.792 162.21 589.4 162.21V162.21Z" fill="white"/>
<path id="Vector_15" d="M582.8 288.48V270.88H596V288.48H609.42V262.09H618L589.4 235.69L560.81 262.09H569.38V288.48H582.8Z" fill="#FBFBFB"/>
<path id="Vector_16" d="M441.43 370.28V351.28C441.43 350.21 441.005 349.184 440.248 348.427C439.491 347.67 438.465 347.245 437.395 347.245C436.325 347.245 435.299 347.67 434.542 348.427C433.785 349.184 433.36 350.21 433.36 351.28V370.28C431.768 371.173 430.517 372.568 429.803 374.247C429.089 375.927 428.952 377.795 429.413 379.561C429.874 381.327 430.908 382.89 432.352 384.005C433.797 385.121 435.57 385.726 437.395 385.726C439.22 385.726 440.993 385.121 442.438 384.005C443.882 382.89 444.916 381.327 445.377 379.561C445.838 377.795 445.701 375.927 444.987 374.247C444.273 372.568 443.022 371.173 441.43 370.28V370.28ZM436 351.28C436.029 350.936 436.187 350.615 436.442 350.381C436.696 350.147 437.029 350.017 437.375 350.017C437.721 350.017 438.054 350.147 438.308 350.381C438.563 350.615 438.721 350.936 438.75 351.28V355.54H436V351.28Z" fill="white" stroke="white" stroke-miterlimit="10"/>
<path id="Vector_17" d="M567.39 372.75C570.886 372.75 573.72 369.916 573.72 366.42C573.72 362.924 570.886 360.09 567.39 360.09C563.894 360.09 561.06 362.924 561.06 366.42C561.06 369.916 563.894 372.75 567.39 372.75Z" fill="#FBFBFB"/>
<path id="Vector_18" d="M438.79 463.12C438.745 462.763 438.569 462.436 438.295 462.203C438.021 461.969 437.669 461.847 437.31 461.86C436.982 461.851 436.661 461.953 436.398 462.149C436.135 462.344 435.945 462.623 435.86 462.94L434.4 470.88C434.36 471.081 434.34 471.285 434.34 471.49C434.34 472.286 434.656 473.049 435.219 473.611C435.781 474.174 436.544 474.49 437.34 474.49C438.136 474.49 438.899 474.174 439.461 473.611C440.024 473.049 440.34 472.286 440.34 471.49C440.337 471.244 440.303 470.998 440.24 470.76L438.79 463.12ZM450.15 466.53C449.996 466.404 449.832 466.291 449.66 466.19L443.74 462.11C443.516 461.943 443.24 461.859 442.961 461.874C442.681 461.889 442.416 462 442.21 462.19C442.026 462.352 441.908 462.576 441.879 462.82C441.849 463.063 441.91 463.309 442.05 463.51L446.61 469.16C446.698 469.292 446.799 469.416 446.91 469.53C447.359 469.918 447.932 470.131 448.525 470.131C449.118 470.131 449.691 469.918 450.14 469.53C450.353 469.342 450.523 469.111 450.64 468.853C450.757 468.594 450.817 468.314 450.817 468.03C450.817 467.746 450.757 467.466 450.64 467.207C450.523 466.949 450.353 466.718 450.14 466.53H450.15ZM454.15 460.7L448.6 460.5C448.433 460.474 448.263 460.513 448.125 460.61C447.987 460.707 447.892 460.854 447.86 461.02C447.839 461.177 447.871 461.337 447.951 461.475C448.03 461.612 448.153 461.72 448.3 461.78V461.78L453.67 463.3C454.45 463.47 455.32 463.11 455.32 462.3C455.32 461.3 455.03 460.79 454.15 460.69V460.7ZM426.57 461.78C426.717 461.72 426.84 461.612 426.919 461.475C426.999 461.337 427.031 461.177 427.01 461.02C426.976 460.853 426.879 460.706 426.739 460.609C426.6 460.513 426.428 460.473 426.26 460.5L420.72 460.7C419.83 460.8 419.57 461.29 419.57 462.3C419.57 463.1 420.42 463.47 421.19 463.3L426.56 461.77L426.57 461.78ZM431.1 462.1L425.18 466.17C425.01 466.268 424.849 466.382 424.7 466.51C424.487 466.698 424.317 466.929 424.2 467.187C424.083 467.446 424.023 467.726 424.023 468.01C424.023 468.294 424.083 468.574 424.2 468.833C424.317 469.092 424.487 469.322 424.7 469.51C425.14 469.911 425.714 470.134 426.31 470.134C426.906 470.134 427.48 469.911 427.92 469.51C428.039 469.405 428.144 469.284 428.23 469.15L432.79 463.52C432.93 463.319 432.991 463.073 432.961 462.83C432.932 462.586 432.814 462.362 432.63 462.2C432.423 461.999 432.151 461.878 431.863 461.86C431.576 461.842 431.291 461.927 431.06 462.1H431.1ZM437.44 435.74C437.44 435.74 440.04 438.74 440.04 441.27C440.084 441.817 440.015 442.368 439.837 442.887C439.659 443.407 439.375 443.884 439.005 444.289C438.634 444.695 438.184 445.019 437.683 445.243C437.181 445.467 436.639 445.585 436.09 445.59C435.529 445.589 434.973 445.475 434.456 445.256C433.939 445.037 433.471 444.717 433.08 444.315C432.689 443.912 432.382 443.435 432.177 442.913C431.973 442.39 431.875 441.831 431.89 441.27V440.68C429.463 443.628 428.14 447.331 428.15 451.15C428.15 453.606 429.126 455.961 430.862 457.698C432.599 459.434 434.954 460.41 437.41 460.41C439.866 460.41 442.221 459.434 443.958 457.698C445.694 455.961 446.67 453.606 446.67 451.15C446.67 444.91 443.59 437.6 437.4 435.74H437.44ZM437.11 456.94C436.133 456.951 435.192 456.573 434.492 455.891C433.793 455.209 433.393 454.277 433.38 453.3C433.378 452.402 433.709 451.536 434.31 450.869C434.91 450.202 435.737 449.782 436.63 449.69C438.713 449.35 440.61 448.288 441.99 446.69C442.444 448.208 442.673 449.785 442.67 451.37C442.67 452.845 442.084 454.259 441.042 455.302C439.999 456.344 438.585 456.93 437.11 456.93V456.94Z" fill="white" stroke="white" stroke-miterlimit="10"/>
<path id="Vector_19" d="M623.39 461.32C626.886 461.32 629.72 458.486 629.72 454.99C629.72 451.494 626.886 448.66 623.39 448.66C619.894 448.66 617.06 451.494 617.06 454.99C617.06 458.486 619.894 461.32 623.39 461.32Z" fill="#FBFBFB"/>
<path id="Vector_20" d="M431.9 557.71C431.903 558.165 432.085 558.601 432.407 558.923C432.729 559.245 433.165 559.427 433.62 559.43H441.18C441.635 559.427 442.071 559.245 442.393 558.923C442.715 558.601 442.897 558.165 442.9 557.71V556.17H431.9V557.71ZM437.4 526.43C430.55 526.43 425.03 531.58 425.03 537.95C425.044 539.849 425.535 541.714 426.458 543.374C427.38 545.034 428.705 546.435 430.31 547.45V551.18C430.318 551.405 430.37 551.626 430.463 551.83C430.556 552.035 430.689 552.219 430.853 552.372C431.017 552.525 431.21 552.645 431.421 552.723C431.631 552.802 431.855 552.838 432.08 552.83H442.72C442.945 552.838 443.169 552.802 443.379 552.723C443.59 552.645 443.783 552.525 443.947 552.372C444.111 552.219 444.244 552.035 444.337 551.83C444.43 551.626 444.482 551.405 444.49 551.18V547.45C446.098 546.438 447.426 545.037 448.35 543.377C449.275 541.717 449.767 539.85 449.78 537.95C449.78 531.58 444.25 526.43 437.4 526.43Z" fill="white" stroke="white" stroke-miterlimit="10"/>
<path id="Vector_21" d="M685.39 549.26C688.886 549.26 691.72 546.426 691.72 542.93C691.72 539.434 688.886 536.6 685.39 536.6C681.894 536.6 679.06 539.434 679.06 542.93C679.06 546.426 681.894 549.26 685.39 549.26Z" fill="#FBFBFB"/>
<path id="Vector_22" d="M429.15 610.13V629.37H434.65V645.87L445.65 623.87H440.15L445.65 610.13H429.15Z" fill="white" stroke="white" stroke-miterlimit="10"/>
<path id="Vector_23" d="M567.39 634.33C570.886 634.33 573.72 631.496 573.72 628C573.72 624.504 570.886 621.67 567.39 621.67C563.894 621.67 561.06 624.504 561.06 628C561.06 631.496 563.894 634.33 567.39 634.33Z" fill="#FBFBFB"/>
<path id="Vector_24" d="M344.08 792.98C376.924 792.98 403.55 787.858 403.55 781.54C403.55 775.222 376.924 770.1 344.08 770.1C311.236 770.1 284.61 775.222 284.61 781.54C284.61 787.858 311.236 792.98 344.08 792.98Z" fill="#FBFBFB"/>
<path id="Vector_25" d="M343.09 785.74C346.912 785.74 350.01 781.684 350.01 776.68C350.01 771.676 346.912 767.62 343.09 767.62C339.268 767.62 336.17 771.676 336.17 776.68C336.17 781.684 339.268 785.74 343.09 785.74Z" fill="#3F3D56"/>
<path id="Vector_26" d="M343.09 774.66C346.912 774.66 350.01 770.604 350.01 765.6C350.01 760.596 346.912 756.54 343.09 756.54C339.268 756.54 336.17 760.596 336.17 765.6C336.17 770.604 339.268 774.66 343.09 774.66Z" fill="#3F3D56"/>
<path id="Vector_27" d="M343.09 763.59C346.912 763.59 350.01 759.534 350.01 754.53C350.01 749.526 346.912 745.47 343.09 745.47C339.268 745.47 336.17 749.526 336.17 754.53C336.17 759.534 339.268 763.59 343.09 763.59Z" fill="#3F3D56"/>
<path id="Vector_28" d="M343.09 752.51C346.912 752.51 350.01 748.454 350.01 743.45C350.01 738.446 346.912 734.39 343.09 734.39C339.268 734.39 336.17 738.446 336.17 743.45C336.17 748.454 339.268 752.51 343.09 752.51Z" fill="#3F3D56"/>
<path id="Vector_29" d="M343.09 741.43C346.912 741.43 350.01 737.374 350.01 732.37C350.01 727.366 346.912 723.31 343.09 723.31C339.268 723.31 336.17 727.366 336.17 732.37C336.17 737.374 339.268 741.43 343.09 741.43Z" fill="#3F3D56"/>
<path id="Vector_30" d="M343.09 730.35C346.912 730.35 350.01 726.294 350.01 721.29C350.01 716.286 346.912 712.23 343.09 712.23C339.268 712.23 336.17 716.286 336.17 721.29C336.17 726.294 339.268 730.35 343.09 730.35Z" fill="#3F3D56"/>
<path id="Vector_31" d="M343.09 719.27C346.912 719.27 350.01 715.214 350.01 710.21C350.01 705.206 346.912 701.15 343.09 701.15C339.268 701.15 336.17 705.206 336.17 710.21C336.17 715.214 339.268 719.27 343.09 719.27Z" fill="#3F3D56"/>
<path id="Vector_32" d="M369 634.41C369.944 633.202 370.806 631.933 371.58 630.61L353.38 627.61L373.06 627.76C374.945 623.652 375.972 619.203 376.081 614.685C376.189 610.167 375.376 605.674 373.69 601.48L347.31 615.18L371.65 597.28C369.37 593.337 366.302 589.907 362.637 587.201C358.973 584.496 354.791 582.575 350.351 581.557C345.912 580.539 341.31 580.446 336.834 581.284C332.357 582.122 328.1 583.873 324.33 586.428C320.559 588.983 317.355 592.287 314.918 596.134C312.48 599.982 310.861 604.29 310.161 608.791C309.461 613.291 309.695 617.888 310.85 622.294C312.004 626.7 314.053 630.821 316.87 634.4C315.403 636.262 314.136 638.273 313.09 640.4L336.71 652.67L311.53 644.28C309.762 649.505 309.325 655.089 310.257 660.526C311.189 665.963 313.462 671.082 316.87 675.42C313.025 680.312 310.634 686.187 309.969 692.373C309.305 698.56 310.395 704.808 313.115 710.405C315.834 716.001 320.073 720.72 325.347 724.021C330.621 727.322 336.718 729.072 342.94 729.072C349.162 729.072 355.259 727.322 360.533 724.021C365.807 720.72 370.046 716.001 372.765 710.405C375.485 704.808 376.575 698.56 375.911 692.373C375.246 686.187 372.855 680.312 369.01 675.42C373.603 669.574 376.1 662.355 376.1 654.92C376.1 647.485 373.603 640.266 369.01 634.42L369 634.41Z" fill="#FBFBFB"/>
<path id="Vector_33" opacity="0.1" d="M309.78 654.91C309.766 662.347 312.264 669.571 316.87 675.41C313.025 680.302 310.634 686.177 309.969 692.363C309.305 698.55 310.395 704.798 313.115 710.395C315.834 715.991 320.073 720.71 325.347 724.011C330.621 727.312 336.718 729.062 342.94 729.062C349.162 729.062 355.259 727.312 360.533 724.011C365.807 720.71 370.046 715.991 372.765 710.395C375.485 704.798 376.575 698.55 375.911 692.363C375.246 686.177 372.855 680.302 369.01 675.41C373.45 669.77 309.78 651.19 309.78 654.91Z" fill="black"/>
<path id="Vector_34" d="M213.92 699.93C264.697 699.93 305.86 692.014 305.86 682.25C305.86 672.486 264.697 664.57 213.92 664.57C163.143 664.57 121.98 672.486 121.98 682.25C121.98 692.014 163.143 699.93 213.92 699.93Z" fill="#FBFBFB"/>
<path id="Vector_35" d="M215.45 688.75C221.359 688.75 226.15 682.478 226.15 674.74C226.15 667.003 221.359 660.73 215.45 660.73C209.541 660.73 204.75 667.003 204.75 674.74C204.75 682.478 209.541 688.75 215.45 688.75Z" fill="#3F3D56"/>
<path id="Vector_36" d="M215.45 671.62C221.359 671.62 226.15 665.348 226.15 657.61C226.15 649.873 221.359 643.6 215.45 643.6C209.541 643.6 204.75 649.873 204.75 657.61C204.75 665.348 209.541 671.62 215.45 671.62Z" fill="#3F3D56"/>
<path id="Vector_37" d="M215.45 654.49C221.359 654.49 226.15 648.218 226.15 640.48C226.15 632.743 221.359 626.47 215.45 626.47C209.541 626.47 204.75 632.743 204.75 640.48C204.75 648.218 209.541 654.49 215.45 654.49Z" fill="#3F3D56"/>
<path id="Vector_38" d="M215.45 637.36C221.359 637.36 226.15 631.087 226.15 623.35C226.15 615.612 221.359 609.34 215.45 609.34C209.541 609.34 204.75 615.612 204.75 623.35C204.75 631.087 209.541 637.36 215.45 637.36Z" fill="#3F3D56"/>
<path id="Vector_39" d="M215.45 620.24C221.359 620.24 226.15 613.968 226.15 606.23C226.15 598.493 221.359 592.22 215.45 592.22C209.541 592.22 204.75 598.493 204.75 606.23C204.75 613.968 209.541 620.24 215.45 620.24Z" fill="#3F3D56"/>
<path id="Vector_40" d="M215.45 603.11C221.359 603.11 226.15 596.837 226.15 589.1C226.15 581.362 221.359 575.09 215.45 575.09C209.541 575.09 204.75 581.362 204.75 589.1C204.75 596.837 209.541 603.11 215.45 603.11Z" fill="#3F3D56"/>
<path id="Vector_41" d="M215.45 585.98C221.359 585.98 226.15 579.707 226.15 571.97C226.15 564.232 221.359 557.96 215.45 557.96C209.541 557.96 204.75 564.232 204.75 571.97C204.75 579.707 209.541 585.98 215.45 585.98Z" fill="#3F3D56"/>
<path id="Vector_42" d="M175.38 454.76C173.915 452.896 172.579 450.935 171.38 448.89L199.52 444.28L169.1 444.51C166.181 438.161 164.586 431.284 164.415 424.298C164.243 417.312 165.497 410.365 168.1 403.88L208.92 425.05L171.3 397.37C174.831 391.286 179.577 385.994 185.241 381.822C190.905 377.651 197.367 374.689 204.225 373.122C211.083 371.555 218.19 371.415 225.104 372.712C232.018 374.009 238.591 376.715 244.415 380.66C250.238 384.606 255.188 389.708 258.955 395.649C262.723 401.59 265.228 408.242 266.315 415.192C267.401 422.142 267.046 429.241 265.272 436.049C263.497 442.856 260.341 449.225 256 454.76C258.279 457.656 260.238 460.791 261.84 464.11L225.33 483.11L264.26 470.04C266.991 478.117 267.666 486.747 266.224 495.151C264.782 503.554 261.268 511.466 256 518.17C261.95 525.734 265.651 534.819 266.681 544.388C267.71 553.956 266.027 563.621 261.822 572.278C257.618 580.934 251.062 588.233 242.905 593.34C234.748 598.446 225.319 601.154 215.695 601.154C206.071 601.154 196.642 598.446 188.485 593.34C180.328 588.233 173.772 580.934 169.568 572.278C165.363 563.621 163.68 553.956 164.709 544.388C165.739 534.819 169.44 525.734 175.39 518.17C168.283 509.13 164.42 497.964 164.42 486.465C164.42 474.966 168.283 463.8 175.39 454.76H175.38Z" fill="#FBFBFB"/>
<path id="Vector_43" opacity="0.1" d="M267 486.46C267.008 497.967 263.132 509.14 256 518.17C261.95 525.734 265.651 534.82 266.681 544.388C267.71 553.956 266.027 563.621 261.822 572.278C257.618 580.934 251.062 588.233 242.905 593.34C234.748 598.446 225.319 601.154 215.695 601.154C206.071 601.154 196.642 598.446 188.485 593.34C180.328 588.233 173.772 580.934 169.568 572.278C165.363 563.621 163.68 553.956 164.709 544.388C165.739 534.82 169.44 525.734 175.39 518.17C168.51 509.44 267 480.71 267 486.46Z" fill="black"/>
<path id="Vector_44" opacity="0.1" d="M882 815.56C936.676 815.56 981 806.158 981 794.56C981 782.962 936.676 773.56 882 773.56C827.324 773.56 783 782.962 783 794.56C783 806.158 827.324 815.56 882 815.56Z" fill="#FBFBFB"/>
<path id="Vector_45" d="M845.25 796.98C845.31 797.491 845.438 797.992 845.63 798.47C846.178 800.314 847.334 801.918 848.91 803.02C849.719 803.487 850.596 803.825 851.51 804.02C857.64 805.49 864.01 805.02 870.27 805.65C876.53 806.28 883.16 807.91 889.34 806.15C890.82 805.73 892.34 804.96 892.94 803.45C892.979 803.356 893.009 803.259 893.03 803.16C897.52 803.74 902.03 804.16 906.33 802.95C907.8 802.53 909.33 801.76 909.93 800.25C910.16 799.469 910.232 798.649 910.14 797.84C909.96 793.63 909.76 789.36 908.48 785.37C908.002 783.931 907.431 782.525 906.77 781.16C905.79 779.06 904.723 777.01 903.57 775.01L903.22 774.36C904.06 774.73 904.88 775.13 905.69 775.56C909.404 764.012 912.111 752.165 913.78 740.15C915.849 725.896 915.43 711.391 912.54 697.28C911.647 692.572 911.311 687.776 911.54 682.99C911.95 673.46 914.16 664.14 916.36 654.88C917.48 650.213 918.597 645.517 919.71 640.79C921.297 634.123 922.89 627.43 924.49 620.71C925.55 616.26 926.61 611.71 926.28 607.13C926.05 604.624 925.553 602.151 924.8 599.75C923.671 595.875 922.267 592.086 920.6 588.41C921.09 588.502 921.596 588.398 922.01 588.12C922.339 587.775 922.558 587.34 922.64 586.87L925.16 577.79C926.93 571.43 928.7 565.02 929.16 558.42C929.71 550.95 928.58 543.42 928.34 535.98C928.03 526.26 929.21 516.51 928.58 506.81C928.44 504.71 928.22 502.62 927.97 500.54C928.08 499.44 928.11 498.34 928.14 497.24C928.3 491.82 928.24 486.41 926.25 481.41C924.884 477.843 922.613 474.693 919.66 472.27C919.75 471.82 919.85 471.38 919.94 470.93L922.04 460.93C924.36 449.84 926.7 438.48 925.37 427.21C924.18 417.21 919.49 407.05 911.55 401.71L911.48 401.66L910.63 401.12L910.48 401.03C910.22 400.87 909.95 400.72 909.68 400.58L909.48 400.47C909.16 400.29 908.82 400.12 908.48 399.97C905.931 398.823 903.241 398.019 900.48 397.58L899.38 397.41C898.284 397.237 897.179 397.123 896.07 397.07H894.96C893.853 397.057 892.747 397.123 891.65 397.27C891.24 397.27 890.84 397.39 890.43 397.47L889.23 397.72C886.857 398.399 884.437 398.904 881.99 399.23C881.53 399.23 881.06 399.29 880.6 399.3C879.21 399.3 877.82 399.21 876.42 399.13C875.73 399.13 875.03 399.07 874.34 399.07C873.189 399.053 872.039 399.157 870.91 399.38C868.957 399.827 867.118 400.675 865.51 401.87C864.324 402.734 863.226 403.712 862.23 404.79C861.421 405.662 860.66 406.576 859.95 407.53C859.62 407.97 859.3 408.42 858.95 408.89L858.49 409.6C858.2 410.09 857.92 410.6 857.66 411.08C857.276 411.83 856.941 412.605 856.66 413.4C855.865 415.47 855.708 417.73 856.21 419.89C856.331 420.348 856.478 420.799 856.65 421.24C854.829 424.831 853.886 428.803 853.9 432.83C853.9 443.83 860.76 453.11 870.19 456.17C871.34 458.29 872.74 460.99 873.91 463.61C871.429 465.385 869.268 467.569 867.52 470.07C861.66 469.74 855.88 474.41 854.02 480.3C853.34 482.567 853.099 484.943 853.31 487.3C852.09 492.22 852.03 497.54 851.92 502.68C851.75 510.78 851.33 518.86 850.92 526.95C850.51 535.04 850.09 543.06 849.67 551.12C849.55 553.43 849.43 555.75 849.13 558.04C847.66 558.43 847.59 560.44 847.76 562.04C848.22 566.31 848.97 570.63 849.45 574.92C848.796 577.566 848.657 580.312 849.04 583.01L849.89 583.39C849.84 586.153 849.437 588.899 848.69 591.56C848.59 592.044 848.37 592.494 848.05 592.87C848.473 592.69 848.922 592.579 849.38 592.54C848.11 596.72 847.1 601 845.61 605.11C844.84 607.23 843.94 609.31 843.28 611.48C842.702 613.54 842.234 615.63 841.88 617.74C841.629 618.955 841.452 620.184 841.35 621.42C841.201 623.793 841.598 626.168 842.512 628.363C843.426 630.558 844.831 632.514 846.62 634.08C846.62 634.9 846.56 635.71 846.56 636.53C846.56 642.38 847.42 648.21 847.21 654.05C846.93 661.92 845.52 669.37 845.48 677.25C845.35 699.05 851.33 720.36 858.35 740.85C861.13 748.97 864.08 757.013 867.2 764.98C869.04 769.7 871.12 774.98 869.14 779.61C869.81 779.34 870.47 779.09 871.14 778.85C870.098 781.467 868.541 783.847 866.56 785.85C863.456 788.905 859.41 790.818 855.08 791.28C852.99 791.51 850.84 791.39 848.85 792.12C846.86 792.85 845.05 794.77 845.25 796.98ZM870.81 683.86C872.982 672.59 877.14 661.795 883.09 651.98L883.15 652.63C883.47 655.85 884.06 659.07 884.7 662.28C886.04 669.04 887.61 675.79 887.37 682.58C887.119 689.777 887.541 696.982 888.63 704.1C888.959 706.885 889.631 709.619 890.63 712.24C891.29 713.8 892.15 715.24 892.63 716.88C893.148 718.753 893.417 720.687 893.43 722.63C894.317 738.653 893.337 754.724 890.51 770.52C889.82 770.52 889.38 770.63 889.37 770.72C888.951 773.423 888.025 776.022 886.64 778.38L886.52 778.16C886.28 777.74 886.03 777.26 885.77 776.78L886.6 776.91C884.31 771.97 884.52 766.21 884.42 760.71C884.221 753.247 883.463 745.809 882.15 738.46C880.186 727.336 876.773 716.518 872 706.28C871.018 704.125 870.345 701.843 870 699.5C869.366 694.279 869.64 688.988 870.81 683.86ZM912.06 564.86C911.684 564.351 911.28 563.864 910.85 563.4C909.85 562.33 908.65 561.09 908.95 559.63C909.102 559.057 909.39 558.528 909.79 558.09C910.593 557.084 911.483 556.15 912.45 555.3L912.77 555.02C912.53 558.28 912.293 561.55 912.06 564.83V564.86Z" fill="url(#paint0_linear)"/>
<path id="Vector_46" d="M926.64 492.28L927.74 500.77C928.11 503.65 928.48 506.52 928.68 509.41C929.35 519.03 928.11 528.69 928.43 538.33C928.69 545.75 929.87 553.16 929.3 560.57C928.79 567.11 926.93 573.47 925.07 579.77L922.43 588.77C922.34 589.24 922.11 589.672 921.77 590.01C921.261 590.311 920.657 590.408 920.08 590.28L908.36 589.28C909.11 585.84 909.94 582.28 910.36 578.75C910.68 575.99 910.87 573.21 911.07 570.43C911.69 561.77 912.4 553.11 913.07 544.43L914.32 529.23C914.85 522.63 915.4 516 917.06 509.59C918.716 503.094 922.015 497.133 926.64 492.28V492.28Z" fill="#FBFBFB"/>
<path id="Vector_47" opacity="0.1" d="M926.64 492.28L927.74 500.77C928.11 503.65 928.48 506.52 928.68 509.41C929.35 519.03 928.11 528.69 928.43 538.33C928.69 545.75 929.87 553.16 929.3 560.57C928.79 567.11 926.93 573.47 925.07 579.77L922.43 588.77C922.34 589.24 922.11 589.672 921.77 590.01C921.261 590.311 920.657 590.408 920.08 590.28L908.36 589.28C909.11 585.84 909.94 582.28 910.36 578.75C910.68 575.99 910.87 573.21 911.07 570.43C911.69 561.77 912.4 553.11 913.07 544.43L914.32 529.23C914.85 522.63 915.4 516 917.06 509.59C918.716 503.094 922.015 497.133 926.64 492.28V492.28Z" fill="black"/>
<path id="Vector_48" d="M905.76 781.33C906.448 782.684 907.049 784.08 907.56 785.51C908.9 789.46 909.1 793.7 909.3 797.87C909.388 798.673 909.314 799.486 909.08 800.26C908.5 801.76 906.84 802.52 905.29 802.93C898.8 804.68 891.96 803.04 885.29 802.44C878.62 801.84 872.03 802.28 865.59 800.83C864.639 800.646 863.72 800.326 862.86 799.88C861.229 798.818 860.012 797.23 859.41 795.38C859.216 794.906 859.085 794.408 859.02 793.9C858.81 791.7 860.72 789.8 862.8 789.08C864.88 788.36 867.15 788.47 869.34 788.25C873.851 787.788 878.083 785.852 881.381 782.74C884.678 779.629 886.857 775.516 887.58 771.04C887.66 770.56 898.42 770.85 899.58 771.47C900.9 772.2 901.7 774.01 902.45 775.24C903.63 777.22 904.733 779.25 905.76 781.33Z" fill="#A26565"/>
<path id="Vector_49" opacity="0.1" d="M905.76 781.33C906.448 782.684 907.049 784.08 907.56 785.51C908.9 789.46 909.1 793.7 909.3 797.87C909.388 798.673 909.314 799.486 909.08 800.26C908.5 801.76 906.84 802.52 905.29 802.93C898.8 804.68 891.96 803.04 885.29 802.44C878.62 801.84 872.03 802.28 865.59 800.83C864.639 800.646 863.72 800.326 862.86 799.88C861.229 798.818 860.012 797.23 859.41 795.38C859.216 794.906 859.085 794.408 859.02 793.9C858.81 791.7 860.72 789.8 862.8 789.08C864.88 788.36 867.15 788.47 869.34 788.25C873.851 787.788 878.083 785.852 881.381 782.74C884.678 779.629 886.857 775.516 887.58 771.04C887.66 770.56 898.42 770.85 899.58 771.47C900.9 772.2 901.7 774.01 902.45 775.24C903.63 777.22 904.733 779.25 905.76 781.33Z" fill="black"/>
<path id="Vector_50" d="M887.91 784.51C888.602 785.858 889.204 787.251 889.71 788.68C891.06 792.68 891.26 796.87 891.45 801.04C891.543 801.843 891.468 802.657 891.23 803.43C890.66 804.93 889 805.69 887.45 806.11C880.96 807.85 874.11 806.21 867.45 805.61C860.79 805.01 854.18 805.45 847.75 804C846.795 803.807 845.874 803.47 845.02 803C843.387 801.941 842.169 800.352 841.57 798.5C841.376 798.026 841.245 797.528 841.18 797.02C840.97 794.83 842.88 792.92 844.96 792.2C847.04 791.48 849.31 791.6 851.5 791.37C856.008 790.907 860.239 788.972 863.536 785.862C866.833 782.753 869.014 778.644 869.74 774.17C869.82 773.69 880.58 773.97 881.74 774.59C883.07 775.32 883.87 777.13 884.62 778.36C885.76 780.39 886.88 782.43 887.91 784.51Z" fill="#A26565"/>
<path id="Vector_51" d="M841.38 678.28C841.24 699.89 847.52 721.01 854.89 741.28C857.81 749.32 860.907 757.29 864.18 765.19C866.12 769.87 868.31 775.07 866.23 779.69C872.23 777.41 878.33 776.07 884.64 777.12C882.24 772.22 882.47 766.52 882.36 761.12C882.156 753.719 881.367 746.346 880 739.07C877.882 727.996 874.251 717.265 869.21 707.18C868.191 705.053 867.487 702.79 867.12 700.46C866.3 695.32 866.94 690.04 868.01 684.95C870.312 673.707 874.686 662.992 880.91 653.35L880.97 653.99C881.344 657.206 881.884 660.4 882.59 663.56C884 670.25 885.65 676.95 885.4 683.68C885.139 690.816 885.581 697.961 886.72 705.01C887.087 707.778 887.809 710.487 888.87 713.07C889.56 714.62 890.46 716.07 891 717.68C891.541 719.532 891.823 721.45 891.84 723.38C892.64 739.65 891.84 756.17 888.52 772.12C894.09 771.68 899.66 773.29 904.64 775.79C908.534 764.373 911.379 752.624 913.14 740.69C915.31 726.576 914.869 712.184 911.84 698.23C910.896 693.576 910.543 688.822 910.79 684.08C911.22 674.63 913.54 665.39 915.85 656.21L919.37 642.21C921.037 635.543 922.703 628.907 924.37 622.3C925.48 617.89 926.6 613.38 926.25 608.84C926.006 606.349 925.483 603.894 924.69 601.52C922.193 593.446 918.459 585.809 913.62 578.88C894.35 579.96 874.85 578.16 855.62 576.68C854.688 576.496 853.72 576.66 852.9 577.14C852.245 577.806 851.854 578.687 851.8 579.62L844.57 620.62C843.416 626.32 842.747 632.107 842.57 637.92C842.57 643.72 843.47 649.5 843.25 655.29C842.9 663.09 841.42 670.47 841.38 678.28Z" fill="#454B69"/>
<path id="Vector_52" opacity="0.1" d="M881 653.99C881.374 657.206 881.914 660.4 882.62 663.56C886.81 656.31 891.33 649.24 895.19 641.81C896.19 639.9 897.13 637.96 898.08 636.02L900.93 630.22C901.46 629.13 901.99 628.04 902.47 626.93C903.252 625.335 903.852 623.658 904.26 621.93C902.86 621.67 899.4 625.45 898.36 626.44C896.239 628.541 894.236 630.757 892.36 633.08C890.048 635.659 887.922 638.399 886 641.28C883.615 645.198 881.923 649.497 881 653.99V653.99Z" fill="black"/>
<path id="Vector_53" d="M864.9 455.08C864.9 455.08 875.6 472.13 873.62 475.7C871.64 479.27 907.32 472.53 907.32 472.53C907.32 472.53 887.89 455.48 889.88 448.34C891.87 441.2 864.9 455.08 864.9 455.08Z" fill="#EE8E9E"/>
<path id="Vector_54" d="M874.41 460.24C887.77 460.24 898.6 449.41 898.6 436.05C898.6 422.69 887.77 411.86 874.41 411.86C861.05 411.86 850.22 422.69 850.22 436.05C850.22 449.41 861.05 460.24 874.41 460.24Z" fill="#EE8E9E"/>
<path id="Vector_55" d="M864.54 472.96C867.126 469.355 870.641 466.518 874.71 464.75C877.053 463.911 879.475 463.314 881.94 462.97L891.59 461.27C893.95 460.85 896.48 460.46 898.68 461.43C899.792 462 900.805 462.747 901.68 463.64C905.03 466.75 908.28 470.16 912.49 471.96C913.64 472.45 914.84 472.81 915.99 473.3C920.7 475.3 924.22 479.56 926.21 484.3C928.31 489.24 928.37 494.61 928.21 499.98C928.213 501.834 928.028 503.683 927.66 505.5C927.179 507.23 926.567 508.922 925.83 510.56C924.508 514.063 923.399 517.643 922.51 521.28C920.01 530.847 917.93 540.513 916.27 550.28C916.129 551.679 915.718 553.037 915.06 554.28C914.128 555.524 913 556.608 911.72 557.49C910.705 558.323 909.771 559.251 908.93 560.26C908.513 560.686 908.207 561.208 908.04 561.78C907.73 563.22 909.04 564.46 910.04 565.51C912.192 567.706 913.748 570.415 914.56 573.38C915.062 573.989 915.318 574.762 915.28 575.55C915.072 576.098 914.993 576.687 915.05 577.27C915.247 577.801 915.557 578.282 915.96 578.68C916.421 579.281 916.749 579.974 916.922 580.712C917.094 581.45 917.107 582.216 916.96 582.96C909.464 586.217 901.442 588.094 893.28 588.5C891.28 588.6 889.28 588.6 887.28 588.84C885.86 589.02 884.46 589.31 883.04 589.48C880.979 589.673 878.908 589.727 876.84 589.64C866.07 589.42 854.99 589.15 845.1 584.88C844.17 579.81 846.18 574.64 847.44 569.64C849.44 561.64 849.94 553.45 851.44 545.38C852.44 539.87 853.94 534.44 854.79 528.89C855.64 523.34 855.84 517.59 854.31 512.19C852.96 507.41 852.55 502.53 851.15 497.76C849.75 492.99 848.77 487.82 850.35 483.1C852.31 477.28 858.38 472.63 864.54 472.96Z" fill="#FBFBFB"/>
<path id="Vector_56" d="M852.66 423.22C851.48 418.93 853.8 414.46 856.56 410.97C859.56 407.22 863.38 403.84 868.07 402.9C871.88 402.13 875.83 403.06 879.71 402.75C883.14 402.48 886.44 401.24 889.85 400.75C892.944 400.417 896.07 400.534 899.13 401.1C902.034 401.532 904.873 402.325 907.58 403.46C917.88 408.03 923.91 419.29 925.31 430.46C926.71 441.63 924.31 452.89 921.82 463.88L919.61 473.82C917.31 484.17 915.01 494.56 914.4 505.14C913.79 515.72 914.93 526.58 919.28 536.24C905.212 528.683 894.312 516.343 888.55 501.45C886.99 497.36 885.83 493.11 884.09 489.09C882.6 485.63 880.69 482.35 879.37 478.82C877.878 474.836 877.162 470.603 877.26 466.35C877.34 463.15 877.87 459.97 877.78 456.77C877.69 453.57 876.87 450.24 874.66 447.92C872.66 445.87 869.91 444.92 867.38 443.59C863.397 441.544 859.917 438.641 857.19 435.09C855.6 433.01 855.51 432.09 855.11 429.73C854.71 427.37 853.28 425.49 852.66 423.22Z" fill="#454B69"/>
<path id="Vector_57" d="M852.63 604.93C852.38 607.42 852.83 609.93 852.29 612.4C851.88 614.24 850.93 615.9 850.37 617.7C849.816 619.778 849.53 621.919 849.52 624.07C849.44 625.87 849.58 628.07 851.18 628.91C851.88 629.28 852.72 629.28 853.45 629.6C854.18 629.92 854.8 630.79 854.38 631.47C853.96 632.15 853.24 632.04 852.58 632.17C851.92 632.3 851.21 632.98 851.58 633.53C851.731 633.71 851.933 633.839 852.16 633.9C852.828 634.106 853.461 634.409 854.04 634.8C854.323 635.006 854.544 635.285 854.68 635.608C854.816 635.93 854.861 636.284 854.81 636.63C854.77 636.796 854.692 636.95 854.584 637.081C854.476 637.213 854.339 637.318 854.184 637.389C854.029 637.461 853.86 637.496 853.69 637.493C853.519 637.489 853.352 637.447 853.2 637.37C853.493 637.997 853.653 638.678 853.67 639.37C851.11 640.47 848.24 639.03 845.84 637.64C844.802 637.061 843.8 636.42 842.84 635.72C840.899 634.23 839.351 632.287 838.333 630.061C837.316 627.835 836.858 625.394 837 622.95C837.114 621.723 837.305 620.504 837.57 619.3C837.939 617.203 838.43 615.13 839.04 613.09C839.73 610.94 840.67 608.89 841.48 606.78C843.2 602.29 844.31 597.59 845.87 593.04C845.974 592.568 846.239 592.148 846.62 591.85C846.964 591.68 847.348 591.608 847.73 591.64C849.481 591.548 851.236 591.71 852.94 592.12C853.94 592.42 855.65 593.12 856.12 594.12C856.59 595.12 855.84 595.96 855.39 596.79C853.953 599.3 853.015 602.064 852.63 604.93V604.93Z" fill="#EE8E9E"/>
<path id="Vector_58" opacity="0.1" d="M854.26 483.42C853.747 483.946 853.315 484.546 852.98 485.2C849.54 491.45 849.5 498.92 849.34 506.05C849.16 514.05 848.72 522.05 848.28 530.1L846.97 554.1C846.84 556.39 846.72 558.68 846.39 560.95C844.85 561.34 844.79 563.34 844.96 564.95C846.07 574.73 848.82 584.8 845.96 594.21C845.85 594.693 845.619 595.14 845.29 595.51C846.742 595.055 848.296 595.034 849.76 595.45C851.19 595.75 852.57 596.28 854.01 596.61C855.83 597.02 857.89 597.2 859.13 598.61C860.535 594.383 861.655 590.067 862.48 585.69C863.16 581.69 863.35 577.57 864.97 573.87C865.62 572.38 866.5 571 867.3 569.57C871.49 562.09 873.55 553.64 875.56 545.3C876.462 541.346 876.678 537.267 876.2 533.24C875.909 531.403 875.742 529.549 875.7 527.69C875.822 525.728 876.079 523.777 876.47 521.85C877.32 516.196 876.92 510.424 875.3 504.94C873.8 499.85 872.48 494.49 869.3 490.21C866.12 485.93 859.57 483.49 854.26 483.42Z" fill="black"/>
<path id="Vector_59" d="M853.07 482.62C852.556 483.149 852.125 483.753 851.79 484.41C848.35 490.65 848.31 498.13 848.15 505.26C847.97 513.26 847.53 521.26 847.09 529.26L845.78 553.26C845.65 555.55 845.53 557.84 845.2 560.11C843.66 560.5 843.6 562.5 843.78 564.11C844.88 573.89 847.63 583.95 844.78 593.37C844.67 593.853 844.439 594.3 844.11 594.67C845.562 594.215 847.116 594.194 848.58 594.61C850.01 594.91 851.39 595.44 852.83 595.76C854.65 596.18 856.71 596.35 857.95 597.76C859.359 593.531 860.478 589.211 861.3 584.83C861.98 580.83 862.17 576.72 863.79 573.02C864.494 571.548 865.271 570.113 866.12 568.72C870.32 561.24 872.37 552.78 874.38 544.44C875.282 540.486 875.499 536.407 875.02 532.38C874.267 528.61 874.359 524.72 875.29 520.99C876.14 515.339 875.74 509.57 874.12 504.09C872.62 499 871.3 493.64 868.12 489.36C864.94 485.08 858.38 482.7 853.07 482.62Z" fill="#FBFBFB"/>
<g id="Group" opacity="0.1">
<path id="Vector_60" opacity="0.1" d="M856.56 410.97C859.56 407.22 863.38 403.84 868.07 402.9C871.88 402.13 875.83 403.06 879.71 402.75C883.14 402.48 886.44 401.24 889.85 400.75C892.944 400.417 896.07 400.534 899.13 401.1C902.034 401.532 904.873 402.325 907.58 403.46C909.042 404.115 910.439 404.909 911.75 405.83C909.34 404.894 906.835 404.223 904.28 403.83C901.223 403.264 898.101 403.146 895.01 403.48C891.59 403.92 888.3 405.15 884.86 405.42C880.99 405.73 877.04 404.81 873.22 405.57C868.53 406.51 864.69 409.9 861.72 413.65C858.95 417.13 856.64 421.6 857.81 425.9C858.43 428.16 859.87 430.14 860.26 432.47C860.65 434.8 860.75 435.75 862.35 437.83C864.401 440.497 866.882 442.806 869.69 444.66C868.92 444.3 868.13 443.94 867.38 443.55C863.397 441.504 859.917 438.601 857.19 435.05C855.6 432.97 855.51 432.05 855.11 429.69C854.71 427.33 853.28 425.39 852.66 423.12C851.48 418.93 853.8 414.46 856.56 410.97Z" fill="black"/>
<path id="Vector_61" opacity="0.1" d="M874.66 447.98C874.246 447.551 873.794 447.159 873.31 446.81C875.62 447.93 878.05 448.91 879.82 450.81C882.03 453.12 882.82 456.46 882.94 459.66C883.06 462.86 882.49 466.04 882.42 469.23C882.322 473.486 883.038 477.722 884.53 481.71C885.85 485.24 887.76 488.51 889.25 491.98C890.98 495.98 892.14 500.24 893.7 504.33C898.699 517.242 907.576 528.289 919.11 535.95C919.17 536.08 919.22 536.22 919.28 536.35C905.212 528.793 894.312 516.453 888.55 501.56C886.99 497.47 885.83 493.22 884.09 489.2C882.6 485.74 880.69 482.46 879.37 478.93C877.878 474.946 877.162 470.713 877.26 466.46C877.34 463.26 877.87 460.08 877.78 456.88C877.69 453.68 876.87 450.28 874.66 447.98Z" fill="black"/>
</g>
<path id="Vector_62" opacity="0.1" d="M195.85 122.78H132.15C127.097 122.78 123 126.877 123 131.93V171.63C123 176.683 127.097 180.78 132.15 180.78H195.85C200.903 180.78 205 176.683 205 171.63V131.93C205 126.877 200.903 122.78 195.85 122.78Z" fill="#FBFBFB"/>
<path id="Vector_63" opacity="0.1" d="M277.85 224.78H214.15C209.097 224.78 205 228.877 205 233.93V273.63C205 278.683 209.097 282.78 214.15 282.78H277.85C282.903 282.78 287 278.683 287 273.63V233.93C287 228.877 282.903 224.78 277.85 224.78Z" fill="#FBFBFB"/>
<path id="Vector_64" opacity="0.1" d="M959.85 132.78H896.15C891.097 132.78 887 136.877 887 141.93V181.63C887 186.683 891.097 190.78 896.15 190.78H959.85C964.903 190.78 969 186.683 969 181.63V141.93C969 136.877 964.903 132.78 959.85 132.78Z" fill="#FBFBFB"/>
</g>
</g>
<defs>
<linearGradient id="paint0_linear" x1="885.32" y1="806.89" x2="885.32" y2="396.99" gradientUnits="userSpaceOnUse">
<stop stop-color="#808080" stop-opacity="0.25"/>
<stop offset="0.54" stop-color="#808080" stop-opacity="0.12"/>
<stop offset="1" stop-color="#808080" stop-opacity="0.1"/>
</linearGradient>
</defs>
</svg>
